<svg xmlns="http://www.w3.org/2000/svg" viewBox="0 0 512 512" width="512" height="512" role="img" aria-label="Voice Capture — door to Claude">
  <rect width="512" height="512" rx="96" fill="#d97757"/>
  <!-- Cream microphone + sound waves on Claude-coral — deliberately distinct from the dark+teal workout icon. -->
  <g fill="none" stroke="#faf4ed" stroke-width="22" stroke-linecap="round" stroke-linejoin="round">
    <!-- mic capsule -->
    <rect x="224" y="120" width="64" height="140" rx="32" fill="#faf4ed" stroke="none"/>
    <!-- pickup arc -->
    <path d="M196 250 a60 60 0 0 0 120 0"/>
    <!-- stem -->
    <line x1="256" y1="310" x2="256" y2="350"/>
    <!-- base -->
    <line x1="220" y1="350" x2="292" y2="350"/>
    <!-- sound waves: right -->
    <path d="M340 214 a46 46 0 0 1 0 64" stroke-width="16"/>
    <path d="M366 196 a72 72 0 0 1 0 100" stroke-width="16"/>
    <!-- sound waves: left -->
    <path d="M172 214 a46 46 0 0 0 0 64" stroke-width="16"/>
    <path d="M146 196 a72 72 0 0 0 0 100" stroke-width="16"/>
  </g>
</svg>
