<svg xmlns="http://www.w3.org/2000/svg" viewBox="0 0 512 512" width="512" height="512" role="img" aria-label="Voice Capture — door to Claude">
  <!-- Maskable: full-bleed coral, mark within the ~80% safe zone (scaled 0.7 about center). -->
  <rect width="512" height="512" fill="#d97757"/>
  <g transform="translate(256 256) scale(0.7) translate(-256 -256)" fill="none" stroke="#faf4ed" stroke-width="22" stroke-linecap="round" stroke-linejoin="round">
    <rect x="224" y="120" width="64" height="140" rx="32" fill="#faf4ed" stroke="none"/>
    <path d="M196 250 a60 60 0 0 0 120 0"/>
    <line x1="256" y1="310" x2="256" y2="350"/>
    <line x1="220" y1="350" x2="292" y2="350"/>
    <path d="M340 214 a46 46 0 0 1 0 64" stroke-width="16"/>
    <path d="M366 196 a72 72 0 0 1 0 100" stroke-width="16"/>
    <path d="M172 214 a46 46 0 0 0 0 64" stroke-width="16"/>
    <path d="M146 196 a72 72 0 0 0 0 100" stroke-width="16"/>
  </g>
</svg>
